<?xml version="1.0" standalone="no"?>
<!DOCTYPE svg PUBLIC "-//W3C//DTD SVG 20010904//EN"
 "http://www.w3.org/TR/2001/REC-SVG-20010904/DTD/svg10.dtd">
<svg version="1.0" xmlns="http://www.w3.org/2000/svg"
 width="1200.000000pt" height="1200.000000pt" viewBox="0 0 1200.000000 1200.000000"
 preserveAspectRatio="xMidYMid meet">
<metadata>
Created by potrace 1.14, written by Peter Selinger 2001-2017
</metadata>
<g transform="translate(0.000000,1200.000000) scale(0.100000,-0.100000)"
fill="#000000" stroke="none">
<path d="M0 6000 l0 -6000 6000 0 6000 0 0 6000 0 6000 -6000 0 -6000 0 0
-6000z m4258 4465 c78 -33 153 -127 178 -225 26 -102 -6 -254 -107 -505 -65
-164 -94 -248 -109 -319 -10 -49 -9 -60 8 -98 25 -55 32 -61 192 -148 366
-199 594 -377 716 -561 126 -189 193 -449 194 -750 0 -159 -17 -271 -61 -395
-43 -121 -69 -172 -231 -443 -77 -128 -142 -241 -145 -250 -4 -16 43 -103 445
-833 l192 -348 0 -199 c0 -182 -2 -200 -17 -205 -10 -2 -78 -6 -152 -8 l-134
-3 -19 30 c-10 17 -150 263 -310 547 -161 285 -296 514 -301 509 -4 -4 -34
-53 -66 -108 l-58 -101 240 -418 c132 -231 250 -444 262 -474 51 -123 67 -302
41 -450 -51 -283 -269 -527 -558 -626 -204 -69 -476 -56 -648 31 -187 94 -333
291 -397 531 -22 85 -26 121 -27 254 l-1 155 43 100 c61 142 165 331 351 633
l162 264 -145 236 c-163 269 -213 364 -259 495 -30 86 -32 100 -31 227 0 121
3 143 27 208 32 88 53 126 123 213 62 78 142 140 364 281 210 133 232 145 237
133 2 -5 84 -148 182 -318 l179 -307 30 47 c105 167 180 330 202 438 32 155
-26 422 -128 593 -146 244 -347 341 -650 313 -215 -20 -405 -85 -575 -198 -93
-62 -278 -241 -428 -416 -66 -75 -119 -135 -119 -131 0 3 36 78 79 167 246
502 523 832 819 975 72 35 92 49 87 61 -18 45 -35 156 -35 231 0 166 46 262
221 465 111 130 225 283 216 291 -2 3 -24 -7 -48 -20 -58 -31 -105 -39 -167
-25 -66 14 -123 56 -159 116 -23 39 -28 60 -28 113 0 98 49 172 150 224 38 20
125 20 173 1z m3142 -35 c155 -45 281 -126 394 -257 132 -151 218 -304 252
-450 16 -67 15 -241 -1 -303 -10 -39 41 45 67 110 18 45 22 76 22 170 0 100
-4 126 -28 195 -30 87 -57 139 -110 208 l-34 45 61 13 c37 9 122 14 212 14
182 0 256 -16 400 -85 196 -95 321 -233 392 -435 26 -76 28 -89 27 -250 0
-158 -2 -176 -27 -252 -65 -195 -218 -346 -424 -418 -72 -25 -206 -55 -246
-55 l-24 0 -6 -257 c-4 -141 -7 -1624 -7 -3295 0 -1671 -4 -3038 -8 -3038 -16
0 -147 98 -189 141 -85 89 -152 240 -198 451 l-17 78 -2129 0 -2129 0 0 203 0
204 413 6 c226 4 658 7 960 7 l547 0 0 443 c0 426 -1 443 -20 475 -57 93 -243
81 -277 -18 -8 -24 -12 -125 -12 -312 l-1 -278 -805 0 -805 0 0 78 c0 42 -3
134 -7 205 l-6 127 605 0 605 0 2 72 c9 308 181 547 430 599 32 7 102 9 166 7
132 -6 199 -27 298 -94 108 -74 175 -165 219 -294 21 -63 22 -82 26 -542 l3
-478 29 0 30 0 2 2523 c2 1387 2 2623 0 2747 l-3 225 -72 18 c-154 38 -334
133 -417 218 -94 97 -124 186 -124 369 0 223 63 385 206 529 237 240 557 298
854 156 39 -19 99 -55 134 -81 60 -44 62 -45 56 -19 -20 78 -98 149 -235 213
l-81 38 17 25 c91 137 330 269 570 314 115 21 344 14 443 -15z m1190 -2076
c74 -98 190 -168 326 -197 l51 -11 -32 -42 c-19 -25 -38 -65 -44 -94 -8 -36
-11 -817 -11 -2679 l0 -2629 -30 -118 c-55 -219 -140 -347 -307 -462 l-63 -43
0 3243 0 3243 34 -78 c19 -43 53 -103 76 -133z m-4588 -57 c49 -29 85 -80 104
-145 15 -49 15 -58 -1 -98 -38 -99 -187 -165 -273 -120 -53 27 -103 104 -117
178 -10 52 22 119 74 153 86 57 155 68 213 32z m-490 -237 c69 -20 148 -130
148 -209 0 -103 -153 -210 -259 -181 -97 26 -172 191 -127 278 30 58 103 103
196 121 3 0 22 -4 42 -9z m3473 -5375 c15 -17 27 -48 34 -89 12 -68 13 -380 3
-678 -9 -246 -6 -288 20 -288 10 0 28 5 40 11 25 14 35 4 17 -17 -19 -24 -171
-94 -203 -94 -26 0 -33 10 -50 63 -5 16 -8 17 -43 1 -138 -60 -275 -74 -348
-37 -42 22 -87 62 -112 100 -14 22 -14 21 -50 -18 -42 -47 -159 -107 -225
-115 -66 -9 -177 26 -228 72 l-40 36 7 451 c6 412 5 455 -11 485 -13 25 -23
32 -46 32 -17 0 -30 4 -30 8 0 18 81 52 150 64 71 12 72 12 92 -12 19 -24 20
-35 13 -460 -7 -394 -6 -439 9 -475 22 -52 43 -74 91 -96 76 -35 120 -26 206
45 35 28 36 29 23 65 -45 126 32 269 201 370 89 54 148 70 252 71 l92 0 7 36
c12 67 -2 305 -21 352 -18 43 -18 43 -59 36 -37 -6 -39 -5 -27 10 18 21 168
96 193 96 10 0 30 -11 43 -25z m-2462 -16 c17 -24 20 -54 30 -275 5 -137 11
-250 12 -251 0 -2 25 6 54 17 170 65 332 12 414 -135 30 -56 31 -180 0 -246
-45 -99 -161 -193 -286 -231 -135 -41 -306 -11 -360 64 -19 25 -19 38 -10 425
12 461 9 526 -27 555 -17 14 -33 18 -53 14 -48 -10 -27 15 49 56 86 47 145 49
177 7z m-713 6 c10 -12 13 -123 14 -478 l1 -464 28 -36 c36 -48 94 -77 151
-77 39 0 53 7 100 45 55 45 76 54 76 35 0 -26 -79 -93 -149 -127 -64 -31 -86
-37 -141 -36 -78 0 -165 31 -211 74 l-31 29 7 428 c4 235 4 447 0 470 -8 52
-27 72 -66 72 -88 0 80 77 172 79 21 1 42 -5 49 -14z m3590 -17 c40 -27 80
-99 80 -142 0 -49 -32 -91 -94 -121 -65 -32 -108 -29 -150 10 -32 29 -65 99
-66 136 0 60 93 139 165 139 18 0 47 -10 65 -22z m-3264 -73 c14 -22 15 -32 5
-64 -6 -22 -20 -50 -31 -63 l-19 -23 -1 40 c0 29 -6 44 -20 53 -22 14 -27 51
-8 70 20 20 56 14 74 -13z m1486 -425 c22 -28 23 -62 2 -107 -24 -48 -68 -78
-197 -134 l-112 -48 2 -41 c3 -61 51 -139 106 -174 61 -38 164 -47 233 -21 25
9 48 14 51 11 13 -12 -42 -56 -93 -76 -167 -62 -329 -40 -414 56 -48 55 -63
99 -64 184 -1 57 5 87 21 123 43 92 182 203 307 244 60 19 135 11 158 -17z
m1763 -12 l27 -32 -7 -237 -7 -236 23 -17 c13 -9 41 -16 62 -16 53 0 38 -18
-45 -55 -90 -40 -137 -44 -174 -12 l-29 25 0 246 c0 271 -1 278 -64 280 -17 1
-31 4 -31 7 0 5 119 63 150 73 41 13 69 5 95 -26z"/>
<path d="M4038 7170 c-39 -30 -68 -98 -68 -156 0 -39 10 -71 46 -145 56 -116
187 -349 196 -349 3 0 34 49 68 109 l61 110 -129 223 c-71 122 -134 224 -139
225 -5 2 -21 -6 -35 -17z"/>
<path d="M4035 5303 c-88 -152 -166 -290 -174 -307 -9 -19 -15 -66 -15 -121
-1 -83 2 -96 32 -157 36 -74 91 -129 168 -168 43 -22 62 -25 154 -25 95 0 110
3 156 27 70 37 142 111 172 177 31 68 40 176 19 242 -15 47 -334 609 -345 609
-4 0 -79 -125 -167 -277z"/>
<path d="M7225 9412 c-58 -41 -139 -137 -176 -205 -36 -69 -48 -154 -29 -212
12 -36 74 -115 90 -115 4 0 5 30 2 68 -5 81 14 165 58 253 17 33 33 59 35 57
3 -2 -3 -38 -11 -79 -24 -109 -22 -277 5 -359 28 -87 36 -98 58 -84 14 9 19
27 21 93 3 80 4 83 37 112 70 62 72 149 6 286 -30 61 -45 107 -49 151 l-7 64
-40 -30z"/>
<path d="M6443 8831 c-24 -4 -46 -10 -49 -14 -4 -4 16 -31 43 -60 60 -63 78
-97 128 -237 48 -136 75 -182 135 -229 64 -51 108 -65 182 -58 l58 5 98 -84
c53 -46 100 -84 105 -84 5 0 17 5 27 10 13 7 27 7 44 -1 23 -11 31 -6 103 54
43 35 86 74 97 85 16 18 26 20 81 15 76 -7 120 6 183 56 55 44 95 113 141 245
41 117 74 176 129 231 24 25 43 48 40 50 -29 29 -328 30 -446 0 -143 -35 -260
-119 -302 -217 -24 -55 -37 -150 -26 -191 6 -24 10 -21 98 67 71 70 112 102
173 133 83 43 201 83 239 82 20 0 20 -1 2 -12 -142 -88 -245 -165 -321 -242
-90 -89 -169 -202 -196 -277 -7 -21 -15 -38 -19 -38 -3 0 -14 21 -24 48 -58
143 -211 312 -392 430 -162 107 -157 102 -104 91 183 -39 366 -151 461 -282
l28 -38 7 36 c10 53 -1 135 -26 192 -23 53 -92 127 -151 160 -49 28 -152 60
-229 73 -71 11 -251 11 -317 1z"/>
<path d="M6521 7584 c-13 -9 -32 -35 -42 -58 -18 -40 -19 -113 -19 -2203 l0
-2163 315 0 316 0 -3 418 c-3 461 -2 450 -71 515 -16 15 -28 29 -26 30 2 1 47
23 99 49 181 91 277 180 360 338 l39 75 1 -713 0 -712 210 2 210 3 0 2138 c0
2400 7 2182 -78 2257 l-45 40 -621 0 c-559 0 -624 -2 -645 -16z"/>
<path d="M6575 2081 c-84 -21 -110 -62 -110 -176 0 -91 20 -146 75 -209 45
-50 98 -76 159 -76 63 0 96 15 121 55 33 53 42 120 34 256 l-6 126 -92 17
c-98 17 -133 18 -181 7z"/>
<path d="M4560 2081 c-12 -8 -15 -41 -15 -183 0 -156 2 -177 20 -208 39 -66
170 -102 234 -64 52 30 86 113 86 204 -1 112 -45 193 -130 238 -35 18 -173 28
-195 13z"/>
<path d="M5356 2068 c-25 -34 -49 -105 -40 -120 8 -13 62 -9 94 7 58 30 77 88
40 125 -30 30 -65 25 -94 -12z"/>
</g>
</svg>
